<?xml version="1.0" encoding="utf-8"?>
<svg version="1.1" baseProfile="tiny" id="Ebene_1" xmlns="http://www.w3.org/2000/svg" xmlns:xlink="http://www.w3.org/1999/xlink"
	 x="0px" y="0px" viewBox="0 0 250 250" xml:space="preserve">
<path fill="#328EE2" d="M197,73c0-35.9-29.1-65-65-65S67,37.1,67,73c0,35.9,29.1,65,65,65l0,0C167.9,138,197,108.9,197,73z"/>
<path fill="#FFFFFF" d="M169.2,56.5l-11.8,1.7c-3.4-8.8-11.8-14.7-21.3-14.8c-11.3,0-19.6,8.7-21.8,19.8c-9.2,1.7-16-6.4-16-6.4
	s-4.9,12.8,10.2,23.4c0.2,0.1,0.4,0.2,0.6,0.2c-8.5,12.8-24.5,14.5-24.5,14.5S151,115.5,158,70.1l11.1,1.5l-9-7.5L169.2,56.5z"/>
<path fill="#328EE2" d="M22.2,197.6c-2.9,0-5.7-0.6-8.3-1.9c-2.4-1.2-4.6-2.9-6.4-4.9c-1.8-2.1-3.2-4.4-4.2-7
	c-1-2.6-1.5-5.4-1.5-8.1c0-2.9,0.5-5.7,1.6-8.3c1-2.6,2.5-5,4.3-7c1.8-2,4-3.7,6.5-4.9c2.5-1.2,5.3-1.8,8.1-1.8
	c2.9,0,5.8,0.6,8.3,1.9c2.4,1.2,4.6,3,6.4,5c1.8,2.1,3.2,4.5,4.2,7.1c0.9,2.6,1.4,5.3,1.4,8c0,5.7-2.1,11.1-5.8,15.4
	c-1.8,2-4,3.7-6.5,4.9C27.8,197,25,197.6,22.2,197.6z M5.1,175.6c0,2.4,0.4,4.9,1.3,7.2c0.8,2.2,2,4.3,3.5,6.1
	c1.5,1.7,3.4,3.2,5.5,4.2c2.2,1.1,4.5,1.6,6.9,1.6c2.5,0,4.9-0.5,7.1-1.7c2.1-1.1,3.9-2.6,5.4-4.4c1.5-1.8,2.7-3.9,3.4-6.1
	c1.7-4.6,1.7-9.6,0-14.1c-0.8-2.2-2-4.3-3.6-6.1c-1.5-1.8-3.3-3.2-5.4-4.3c-2.1-1.1-4.5-1.6-6.8-1.6c-2.5,0-4.9,0.5-7.1,1.7
	c-2.1,1.1-3.9,2.6-5.4,4.4c-1.5,1.8-2.7,3.9-3.5,6.1C5.5,170.8,5.1,173.2,5.1,175.6z"/>
<path fill="#328EE2" d="M65.1,168.3c-5.6,0-10.5,3.8-12,9.2v19.9H50v-31.8H53v7.8c1-2.1,2.5-4,4.4-5.5c1.7-1.3,3.7-2.2,5.8-2.4
	c0.4,0,0.7,0,1.1,0h0.8V168.3z"/>
<path fill="#328EE2" d="M82.1,197.8c-2.1,0-4.2-0.5-6.1-1.4c-1.8-0.9-3.4-2.1-4.7-3.7c-1.3-1.5-2.4-3.3-3.1-5.2
	c-0.7-1.9-1.1-4-1.1-6.1c0-2.1,0.4-4.2,1.1-6.2c0.7-1.9,1.7-3.7,3-5.3c1.3-1.5,2.9-2.8,4.7-3.6c1.9-0.9,3.9-1.4,6-1.4
	c2.6-0.1,5.1,0.7,7.3,2.2c2,1.4,3.8,3.2,5.2,5.3v-6.9h2.8v32.5c0,2-0.4,3.9-1.2,5.7c-0.8,1.6-1.9,3-3.3,4.1c-1.4,1.1-3,1.9-4.7,2.4
	c-1.9,0.6-3.8,0.8-5.7,0.8c-1.7,0-3.3-0.2-4.9-0.5c-1.4-0.3-2.7-0.7-3.9-1.4c-1.1-0.6-2.1-1.4-3-2.3c-0.9-0.9-1.6-1.9-2.3-3l2.1-1.4
	c1.2,2.1,3,3.7,5.1,4.7c2.2,1,4.5,1.5,6.9,1.5c1.6,0,3.1-0.2,4.6-0.7c1.4-0.4,2.7-1.1,3.8-2c1.1-0.9,2-2,2.6-3.3
	c0.7-1.4,1-3,0.9-4.6v-6.9c-1.3,2.1-3.1,3.8-5.2,5C86.9,197.2,84.5,197.8,82.1,197.8z M82.9,195.2c1.4,0,2.7-0.3,3.9-0.8
	c1.2-0.5,2.4-1.2,3.5-2c1-0.8,1.9-1.7,2.6-2.8c0.6-0.9,1.1-2,1.3-3.1v-10.4c-0.5-1.2-1.1-2.4-1.9-3.4c-0.8-1-1.7-1.9-2.8-2.7
	c-1-0.7-2.2-1.3-3.4-1.7c-2.9-1-6-0.8-8.8,0.6c-1.5,0.8-2.8,1.9-3.8,3.2c-1.1,1.3-1.9,2.8-2.4,4.4c-0.5,1.6-0.8,3.3-0.8,5
	c0,1.8,0.3,3.5,1,5.2c0.6,1.6,1.5,3.1,2.7,4.3c1.1,1.3,2.5,2.3,4,3C79.5,194.8,81.2,195.2,82.9,195.2z"/>
<path fill="#328EE2" d="M114.5,197.9c-2.7,0-5.4-1-7.4-2.8c-1-0.9-1.7-1.9-2.2-3.1c-0.5-1.2-0.8-2.6-0.8-3.9c0-1.3,0.3-2.6,1-3.8
	c0.7-1.2,1.6-2.2,2.8-3c1.3-0.9,2.7-1.5,4.2-2c1.8-0.5,3.6-0.7,5.4-0.7c1.7,0,3.5,0.2,5.2,0.5c1.6,0.3,3.2,0.7,4.7,1.3v-3.2
	c0.1-2.6-0.8-5.2-2.6-7.2c-1.8-1.8-4.4-2.8-6.9-2.7c-1.7,0-3.3,0.4-4.9,1c-1.9,0.7-3.6,1.6-5.3,2.8l-1.2-2.1c3.4-2.5,7.4-4,11.6-4.2
	c3.3-0.2,6.6,1,9,3.3c2.3,2.5,3.5,5.8,3.3,9.3V193c0,1,0.4,1.5,1.4,1.5v2.8c-0.2,0-0.4,0.1-0.7,0.1c-0.2,0-0.4,0-0.6,0
	c-0.7,0-1.5-0.3-2-0.8c-0.5-0.6-0.8-1.2-0.9-2V192c-1.5,1.9-3.4,3.4-5.7,4.3C119.6,197.4,117.1,197.9,114.5,197.9z M115.1,195.5
	c2.2,0,4.5-0.5,6.5-1.4c1.8-0.7,3.3-1.9,4.5-3.4c0.6-0.7,0.9-1.5,1-2.4v-5.6c-1.5-0.6-3-1-4.6-1.3c-1.6-0.3-3.3-0.4-5-0.4
	c-1.5,0-2.9,0.2-4.3,0.5c-1.2,0.3-2.3,0.8-3.4,1.4c-0.9,0.6-1.6,1.3-2.2,2.2c-0.5,0.9-0.8,1.9-0.8,2.9c0,1,0.2,2.1,0.6,3
	c0.4,0.9,1,1.7,1.7,2.4c0.8,0.7,1.6,1.2,2.6,1.6C113,195.3,114,195.5,115.1,195.5z"/>
<path fill="#328EE2" d="M173.3,186.1c0,1.6-0.3,3.2-1,4.6c-0.7,1.4-1.6,2.6-2.8,3.6c-1.2,1-2.6,1.8-4,2.3c-1.6,0.5-3.2,0.8-4.9,0.8
	H140v-43.4h21.6c1.4,0,2.8,0.3,4.1,1c1.2,0.6,2.3,1.5,3.1,2.5c0.9,1.1,1.5,2.3,2,3.5c0.5,1.3,0.7,2.6,0.7,4c0,2.1-0.5,4.2-1.6,6
	c-1.1,1.8-2.7,3.3-4.6,4.1c2.4,0.7,4.4,2.1,5.9,4.1C172.6,181.2,173.3,183.6,173.3,186.1z M145.5,158.7v14.5h13.9
	c0.9,0,1.8-0.2,2.7-0.6c0.8-0.4,1.5-0.9,2.1-1.6c0.6-0.7,1.1-1.4,1.4-2.3c0.4-0.9,0.5-1.8,0.5-2.8c0-1-0.2-1.9-0.5-2.9
	c-0.3-0.8-0.7-1.6-1.3-2.3c-1.2-1.3-2.8-2.1-4.6-2.1H145.5z M167.7,185.2c0-1-0.2-1.9-0.5-2.8c-0.3-0.9-0.8-1.7-1.4-2.4
	c-0.6-0.7-1.3-1.3-2.1-1.7c-0.8-0.4-1.8-0.6-2.7-0.6h-15.5v14.9h15.1c1,0,1.9-0.2,2.8-0.6c0.8-0.4,1.6-0.9,2.3-1.6
	c0.7-0.7,1.2-1.5,1.5-2.4C167.5,187,167.7,186.1,167.7,185.2L167.7,185.2z"/>
<path fill="#328EE2" d="M180.1,159.4v-6.7h5.4v6.7H180.1z M180.1,197.3v-32h5.4v32H180.1z"/>
<path fill="#328EE2" d="M211,170.1c-2.5,0-5,0.7-7.1,2.1c-2,1.3-3.6,3.2-4.4,5.4v19.7h-5.3v-32h5v7.4c1-2.1,2.5-3.9,4.3-5.3
	c1.7-1.3,3.7-2.1,5.8-2.3h1c0.2,0,0.5,0,0.7,0L211,170.1z"/>
<path fill="#328EE2" d="M228.9,197.9c-2.1,0-4.2-0.5-6.1-1.4c-1.8-0.9-3.5-2.1-4.8-3.6c-1.4-1.5-2.4-3.3-3.1-5.3
	c-0.8-2-1.1-4.1-1.1-6.3c0-2.2,0.4-4.3,1.1-6.4c0.7-1.9,1.7-3.7,3-5.3c1.3-1.5,2.8-2.7,4.6-3.6c1.8-0.9,3.8-1.4,5.8-1.4
	c2.4,0,4.8,0.7,6.9,2c1.9,1.3,3.6,2.9,4.8,4.9v-19h5.4v38c0,1.3,0.6,1.9,1.7,2v4.7l-1.4,0.2c-0.3,0-0.7,0-1,0c-1,0-2-0.4-2.8-1.1
	c-0.7-0.6-1.2-1.5-1.2-2.5v-2.6C238.1,195.4,233.7,197.9,228.9,197.9L228.9,197.9z M230.2,193.3c1,0,2.1-0.2,3-0.5
	c1-0.4,2-0.9,2.9-1.5c0.9-0.6,1.8-1.4,2.5-2.3c0.6-0.8,1.1-1.8,1.3-2.8V177c-0.4-1.1-1-2.1-1.7-3c-0.7-0.9-1.6-1.7-2.5-2.4
	c-0.9-0.7-1.9-1.2-2.9-1.6c-1-0.4-2-0.6-3.1-0.6c-1.5,0-3,0.3-4.3,1c-1.3,0.7-2.4,1.6-3.3,2.7c-0.9,1.1-1.6,2.5-2.1,3.8
	c-0.5,1.4-0.7,2.9-0.7,4.4c0,1.6,0.3,3.1,0.8,4.6c0.5,1.4,1.3,2.7,2.3,3.8c1,1.1,2.2,1.9,3.5,2.5
	C227.3,192.9,228.7,193.3,230.2,193.3L230.2,193.3z"/>
</svg>
